<?xml version="1.0" standalone="no"?>
<!DOCTYPE svg PUBLIC "-//W3C//DTD SVG 20010904//EN"
 "http://www.w3.org/TR/2001/REC-SVG-20010904/DTD/svg10.dtd">
<svg version="1.0" xmlns="http://www.w3.org/2000/svg"
 width="16.000000pt" height="16.000000pt" viewBox="0 0 16.000000 16.000000"
 preserveAspectRatio="xMidYMid meet">
<metadata>
Created by potrace 1.11, written by Peter Selinger 2001-2013
</metadata>
<g transform="translate(0.000000,16.000000) scale(0.006667,-0.006667)"
fill="#000000" stroke="none">
<path d="M889 2296 c-2 -2 -22 -6 -44 -9 -291 -39 -562 -228 -718 -499 -44
-76 -95 -219 -112 -310 -18 -101 -14 -293 8 -394 95 -428 465 -750 901 -780
l90 -7 -26 26 c-14 14 -45 55 -69 91 -36 55 -48 65 -78 71 -73 13 -189 57
-261 99 -83 49 -186 136 -195 167 -9 28 4 59 25 59 23 0 28 24 16 72 -8 29 -7
41 6 55 42 49 22 97 -75 180 -20 18 -37 34 -36 35 4 11 -40 100 -64 131 -19
25 -31 54 -35 83 -3 29 -12 50 -25 59 -19 13 -19 15 -3 82 37 148 164 355 231
376 17 5 41 20 55 32 18 17 33 22 52 18 23 -4 30 1 54 38 16 24 27 49 26 55
-1 6 8 15 20 21 48 23 134 53 168 59 33 6 31 3 -30 -38 -40 -27 -66 -51 -68
-64 -3 -21 -1 -21 53 7 37 19 71 28 99 27 46 -1 104 25 155 68 28 23 38 26 84
21 94 -9 227 -48 227 -66 0 -5 -11 -13 -25 -19 -14 -6 -25 -15 -25 -19 -1 -20
-29 -43 -44 -37 -12 5 -14 10 -6 19 13 16 6 21 -46 30 -40 6 -44 5 -98 -48
-61 -60 -71 -87 -32 -87 13 0 29 -7 36 -15 20 -24 40 -18 40 12 0 31 21 93 31
93 4 0 5 -16 2 -36 -6 -36 -5 -37 21 -30 25 6 26 5 14 -14 -7 -11 -16 -20 -19
-20 -4 0 -9 -9 -12 -20 -4 -16 -14 -20 -46 -20 -36 0 -41 3 -42 23 -1 20 -2
20 -12 -5 -6 -16 -18 -28 -26 -28 -9 0 -29 -11 -45 -25 -16 -13 -37 -27 -47
-30 -15 -5 -17 -10 -9 -24 16 -30 -10 -54 -52 -49 -35 4 -36 3 -45 -38 -9 -38
-8 -43 11 -52 28 -13 59 0 104 44 65 64 95 68 148 19 21 -19 42 -35 46 -35 16
0 7 17 -23 44 -17 15 -29 30 -26 32 9 9 66 -31 82 -58 18 -31 33 -36 41 -13 9
23 44 19 44 -5 0 -23 33 -34 85 -28 20 2 36 -1 39 -7 8 -23 -7 -67 -27 -74
-25 -9 -94 -3 -120 11 -16 8 -23 5 -41 -16 l-21 -27 -52 27 c-40 21 -53 33
-55 53 -3 24 -7 26 -48 26 -56 -1 -146 -14 -176 -26 -13 -4 -34 -24 -46 -44
-13 -19 -33 -38 -46 -41 -12 -4 -38 -25 -57 -47 -27 -32 -35 -50 -36 -81 0
-23 0 -67 -1 -98 -1 -105 54 -165 170 -184 34 -5 39 -3 50 22 43 94 166 232
268 300 213 142 488 197 738 149 44 -8 81 -14 82 -12 4 4 -44 134 -68 182
-107 218 -289 392 -503 483 -129 55 -215 73 -366 78 -74 2 -137 3 -140 0z
m465 -531 c-4 -10 5 -21 25 -32 41 -24 34 -39 -18 -35 -23 2 -48 -1 -55 -7 -9
-8 -18 -7 -30 2 -14 10 -15 18 -7 40 11 29 21 33 37 17 7 -7 16 -4 29 10 22
24 26 25 19 5z"/>
<path d="M926 1900 c-2 -8 -7 -32 -10 -52 -4 -31 -2 -38 12 -38 25 0 51 20 35
27 -7 2 -13 14 -13 26 0 12 -4 29 -10 37 -8 13 -9 13 -14 0z"/>
<path d="M875 1850 c-17 -18 -17 -20 -1 -20 9 0 19 7 23 15 9 25 -2 27 -22 5z"/>
<path d="M1114 1625 c-16 -12 -17 -14 -3 -15 9 0 19 7 23 15 7 19 5 19 -20 0z"/>
<path d="M1668 1385 c-2 -2 -30 -5 -63 -8 -277 -27 -522 -212 -586 -443 -26
-92 -20 -217 13 -305 32 -87 104 -186 176 -245 65 -54 189 -116 277 -140 87
-23 272 -29 370 -11 45 8 85 11 91 6 39 -31 427 -149 442 -134 3 2 -7 30 -22
61 -38 80 -73 190 -81 251 -5 46 -3 57 18 85 112 150 127 374 35 538 -115 206
-339 329 -625 345 -23 1 -44 1 -45 0z m250 -361 c13 -4 22 -14 22 -25 0 -14 7
-19 30 -19 27 0 30 -3 30 -30 0 -28 -2 -30 -38 -30 -34 0 -38 -3 -37 -22 1
-17 8 -22 31 -24 16 0 34 5 39 13 15 21 65 7 65 -18 0 -10 11 -26 24 -34 13
-9 32 -32 41 -52 39 -82 -24 -175 -125 -185 -33 -3 -35 -1 -38 30 -3 28 0 32
20 32 13 0 38 9 56 20 24 15 32 27 32 49 0 16 -7 37 -16 46 -15 14 -18 12 -44
-28 -36 -57 -81 -88 -137 -95 -54 -6 -87 10 -103 49 -24 56 4 115 68 148 15 8
22 21 22 41 0 26 -4 30 -28 30 -36 0 -40 5 -34 35 3 21 10 25 37 25 27 0 34 5
39 25 7 27 9 28 44 19z m-404 -26 c5 -7 136 -359 136 -366 0 -7 -46 -9 -71 -3
-4 0 -12 20 -18 44 -12 41 -14 42 -49 41 -20 -1 -54 -3 -74 -3 -34 -1 -38 -4
-49 -41 -7 -22 -18 -41 -26 -41 -46 -5 -63 -3 -63 6 -1 16 132 359 142 366 8
5 68 4 72 -3z"/>
<path d="M1926 783 c9 -39 10 -39 29 -4 15 31 15 31 -10 31 -23 0 -25 -3 -19
-27z"/>
<path d="M1835 766 c-14 -21 -15 -29 -5 -41 23 -28 39 -18 34 22 -6 48 -9 50
-29 19z"/>
<path d="M1454 858 c-9 -29 -17 -55 -16 -58 0 -3 -4 -10 -9 -16 -6 -8 6 -11
41 -13 28 -1 50 0 50 3 0 10 -41 136 -45 136 -2 0 -11 -24 -21 -52z"/>
</g>
</svg>
