<?xml version="1.0" standalone="no"?>
<!DOCTYPE svg PUBLIC "-//W3C//DTD SVG 20010904//EN"
 "http://www.w3.org/TR/2001/REC-SVG-20010904/DTD/svg10.dtd">
<svg version="1.0" xmlns="http://www.w3.org/2000/svg"
 width="260.000000pt" height="260.000000pt" viewBox="0 0 260.000000 260.000000"
 preserveAspectRatio="xMidYMid meet">
<metadata>
Created by potrace 1.11, written by Peter Selinger 2001-2013
</metadata>
<g transform="translate(0.000000,260.000000) scale(0.100000,-0.100000)"
fill="#000000" stroke="none">
<path d="M1142 2509 c-413 -53 -794 -369 -975 -809 -244 -591 9 -1213 607
-1496 172 -81 320 -114 517 -114 198 0 341 34 514 123 335 173 611 567 681
971 22 124 15 350 -14 458 -66 245 -214 457 -432 618 -100 74 -315 181 -420
210 -162 45 -330 59 -478 39z m378 -656 c54 -18 135 -70 172 -109 15 -16 39
-56 55 -89 26 -55 28 -69 27 -170 -1 -91 -5 -123 -27 -188 -71 -206 -202 -396
-339 -487 -165 -110 -349 -102 -484 22 -88 81 -124 167 -124 298 0 182 119
432 285 596 137 136 281 178 435 127z"/>
</g>
</svg>
