<?xml version="1.0" standalone="no"?>
<!DOCTYPE svg PUBLIC "-//W3C//DTD SVG 20010904//EN"
 "http://www.w3.org/TR/2001/REC-SVG-20010904/DTD/svg10.dtd">
<svg version="1.0" xmlns="http://www.w3.org/2000/svg"
 width="260.000000pt" height="260.000000pt" viewBox="0 0 260.000000 260.000000"
 preserveAspectRatio="xMidYMid meet">
<metadata>
Created by potrace 1.11, written by Peter Selinger 2001-2013
</metadata>
<g transform="translate(0.000000,260.000000) scale(0.100000,-0.100000)"
fill="#000000" stroke="none">
<path d="M426 2195 c-47 -16 -91 -57 -117 -107 -16 -31 -19 -59 -19 -178 0
-152 6 -177 59 -233 57 -62 53 -62 445 -65 l360 -3 -411 -412 c-226 -227 -416
-422 -422 -434 -18 -35 -13 -129 8 -171 10 -20 70 -87 133 -148 104 -102 119
-112 166 -123 40 -8 65 -8 100 0 44 11 76 41 459 422 l412 410 3 -349 c4 -391
3 -391 76 -456 51 -46 84 -53 242 -53 114 0 129 2 170 25 24 14 58 45 75 68
l30 44 3 796 c2 556 0 808 -8 835 -14 49 -65 106 -115 128 -38 17 -87 19 -825
18 -641 0 -792 -2 -824 -14z"/>
</g>
</svg>
