<svg version="1" xmlns="http://www.w3.org/2000/svg" width="346.667" height="346.667" viewBox="0 0 260 260"><path d="M42.6 40.5c-4.7 1.6-9.1 5.7-11.7 10.7C29.3 54.3 29 57.1 29 69c0 15.2.6 17.7 5.9 23.3 5.7 6.2 5.3 6.2 44.5 6.5l36 .3-41.1 41.2c-22.6 22.7-41.6 42.2-42.2 43.4-1.8 3.5-1.3 12.9.8 17.1 1 2 7 8.7 13.3 14.8 10.4 10.2 11.9 11.2 16.6 12.3 4 .8 6.5.8 10 0 4.4-1.1 7.6-4.1 45.9-42.2l41.2-41 .3 34.9c.4 39.1.3 39.1 7.6 45.6 5.1 4.6 8.4 5.3 24.2 5.3 11.4 0 12.9-.2 17-2.5 2.4-1.4 5.8-4.5 7.5-6.8l3-4.4.3-79.6c.2-55.6 0-80.8-.8-83.5-1.4-4.9-6.5-10.6-11.5-12.8-3.8-1.7-8.7-1.9-82.5-1.8-64.1 0-79.2.2-82.4 1.4z"/></svg>